<svg width="80" height="82" viewBox="0 0 80 82" fill="none" xmlns="http://www.w3.org/2000/svg">
<path d="M15.6385 4.23096C23.2009 1.96788 31.0337 0.733836 38.9255 0.562012C51.1255 0.562012 63.5696 4.23096 63.5696 4.23096C69.6576 6.66696 73.4315 9.70596 75.5525 16.46C77.7785 24.0993 78.989 31.9986 79.1526 39.954C78.9575 48.5408 77.749 57.0746 75.5525 65.3781C73.4315 72.132 69.3926 74.901 63.5696 77.608C56.1245 79.924 48.3857 81.1595 40.5896 81.277C28.6776 81.277 15.6385 77.608 15.6385 77.608C9.28555 75.173 5.51152 72.4031 3.65552 65.3781C3.65552 65.3781 0.0605469 52.078 0.0605469 39.349C0.213309 31.5914 1.42275 23.8908 3.65552 16.46C6.04152 9.43496 9.81555 6.12496 15.6385 4.23096Z" fill="#80B500"/>
<path d="M45.8605 54.598C45.859 54.754 45.8267 54.908 45.7655 55.0515C45.7043 55.1949 45.6155 55.3248 45.504 55.4339C45.3925 55.5429 45.2607 55.6289 45.1159 55.6869C44.9712 55.745 44.8165 55.7739 44.6605 55.772H30.0495C28.7913 55.783 27.5801 55.2942 26.6819 54.413C25.7836 53.5318 25.2717 52.3303 25.2585 51.072V38.042C25.2585 37.7238 25.385 37.4186 25.61 37.1935C25.8351 36.9685 26.1403 36.842 26.4585 36.842C26.7768 36.842 27.082 36.9685 27.3071 37.1935C27.5321 37.4186 27.6585 37.7238 27.6585 38.042V51.076C27.6657 51.7056 27.9225 52.3066 28.3725 52.7468C28.8225 53.1871 29.429 53.4307 30.0585 53.424H44.6605C44.8165 53.4222 44.9712 53.4511 45.1159 53.5091C45.2607 53.5672 45.3925 53.6531 45.504 53.7622C45.6155 53.8712 45.7043 54.0012 45.7655 54.1446C45.8267 54.288 45.859 54.4421 45.8605 54.598ZM54.7255 29.236V32.758C54.724 32.914 54.6917 33.068 54.6305 33.2115C54.5693 33.3549 54.4805 33.4848 54.369 33.5939C54.2575 33.7029 54.1257 33.7889 53.9809 33.8469C53.8362 33.905 53.6815 33.9339 53.5255 33.932V42.504C53.5255 42.8223 53.3991 43.1275 53.1741 43.3526C52.949 43.5776 52.6438 43.704 52.3255 43.704C52.0073 43.704 51.7021 43.5776 51.477 43.3526C51.252 43.1275 51.1255 42.8223 51.1255 42.504V33.932H25.2605C25.1046 33.9339 24.9499 33.905 24.8051 33.8469C24.6604 33.7889 24.5286 33.7029 24.4171 33.5939C24.3056 33.4848 24.2168 33.3549 24.1556 33.2115C24.0944 33.068 24.0621 32.914 24.0605 32.758V29.236C24.0708 28.2925 24.4551 27.3917 25.1289 26.7312C25.8027 26.0707 26.711 25.7045 27.6545 25.713H51.1315C52.0751 25.7045 52.9834 26.0707 53.6572 26.7312C54.331 27.3917 54.7153 28.2925 54.7255 29.236ZM26.4605 31.584H52.3295V29.236C52.3259 28.9213 52.1974 28.6209 51.9724 28.4008C51.7474 28.1807 51.4443 28.0588 51.1295 28.062H27.6545C27.3408 28.0604 27.0392 28.183 26.8155 28.4029C26.5919 28.6229 26.4642 28.9223 26.4605 29.236V31.584ZM42.0325 38.629C42.1867 38.629 42.3394 38.5987 42.4818 38.5397C42.6243 38.4807 42.7537 38.3942 42.8627 38.2852C42.9717 38.1762 43.0582 38.0467 43.1172 37.9043C43.1762 37.7619 43.2065 37.6092 43.2065 37.455C43.2065 37.3009 43.1762 37.1482 43.1172 37.0058C43.0582 36.8633 42.9717 36.7339 42.8627 36.6249C42.7537 36.5159 42.6243 36.4294 42.4818 36.3704C42.3394 36.3114 42.1867 36.281 42.0325 36.281H36.6425C36.4884 36.281 36.3357 36.3114 36.1933 36.3704C36.0508 36.4294 35.9214 36.5159 35.8124 36.6249C35.7034 36.7339 35.6169 36.8633 35.5579 37.0058C35.4989 37.1482 35.4685 37.3009 35.4685 37.455C35.4685 37.6092 35.4989 37.7619 35.5579 37.9043C35.6169 38.0467 35.7034 38.1762 35.8124 38.2852C35.9214 38.3942 36.0508 38.4807 36.1933 38.5397C36.3357 38.5987 36.4884 38.629 36.6425 38.629H42.0325ZM49.4325 45.381H43.1065L44.6065 43.926C44.7182 43.8187 44.8072 43.6901 44.8683 43.5478C44.9293 43.4054 44.9612 43.2523 44.9621 43.0974C44.9629 42.9426 44.9327 42.7891 44.8731 42.6461C44.8136 42.5031 44.726 42.3736 44.6155 42.265C44.3899 42.0433 44.0867 41.9183 43.7704 41.9166C43.454 41.9149 43.1495 42.0367 42.9215 42.256L40.6985 44.413C40.4189 44.6813 40.1962 45.0032 40.0439 45.3595C39.8916 45.7158 39.8129 46.0993 39.8123 46.4868C39.8117 46.8743 39.8894 47.2579 40.0407 47.6147C40.1919 47.9714 40.4136 48.294 40.6925 48.563L42.9205 50.735C43.1473 50.9556 43.4512 51.0789 43.7675 51.0789C44.0839 51.0789 44.3877 50.9556 44.6145 50.735C44.7255 50.6271 44.8136 50.4981 44.8738 50.3555C44.934 50.213 44.965 50.0598 44.965 49.905C44.965 49.7503 44.934 49.5971 44.8738 49.4545C44.8136 49.312 44.7255 49.1829 44.6145 49.075L43.2405 47.735H49.4305C49.8087 47.7261 50.1849 47.7926 50.5371 47.9306C50.8893 48.0687 51.2104 48.2755 51.4818 48.539C51.7532 48.8025 51.9694 49.1175 52.1177 49.4654C52.266 49.8134 52.3436 50.1875 52.3457 50.5657C52.3479 50.944 52.2748 51.3189 52.1305 51.6686C51.9862 52.0183 51.7737 52.3357 51.5054 52.6023C51.237 52.869 50.9183 53.0795 50.5677 53.2216C50.2172 53.3637 49.8418 53.4346 49.4635 53.43C49.1522 53.43 48.8536 53.5537 48.6334 53.7739C48.4132 53.9941 48.2895 54.2927 48.2895 54.604C48.2895 54.9154 48.4132 55.214 48.6334 55.4342C48.8536 55.6543 49.1522 55.778 49.4635 55.778C50.156 55.7817 50.8424 55.6487 51.4834 55.3869C52.1245 55.1251 52.7076 54.7394 53.1995 54.252C53.686 53.7731 54.0719 53.2019 54.3348 52.5718C54.5977 51.9418 54.7323 51.2657 54.7305 50.583C54.716 49.191 54.1498 47.8617 53.1561 46.8868C52.1625 45.9119 50.8226 45.371 49.4305 45.383L49.4325 45.381Z" fill="white"/>
</svg>
