<svg width="80" height="82" viewBox="0 0 80 82" fill="none" xmlns="http://www.w3.org/2000/svg">
<path d="M15.578 4.23706C23.1404 1.97398 30.9731 0.739939 38.865 0.568115C51.065 0.568115 63.509 4.23706 63.509 4.23706C69.597 6.67306 73.3709 9.71206 75.4919 16.4661C77.7179 24.1054 78.9285 32.0047 79.092 39.9601C78.8969 48.5469 77.6885 57.0807 75.4919 65.3842C73.3709 72.1382 69.332 74.9071 63.509 77.6141C56.064 79.9301 48.3251 81.1656 40.5291 81.2831C28.6171 81.2831 15.578 77.6141 15.578 77.6141C9.225 75.1791 5.45097 72.4092 3.59497 65.3842C3.59497 65.3842 0 52.0841 0 39.3551C0.152762 31.5975 1.3622 23.8969 3.59497 16.4661C5.98097 9.44106 9.755 6.13106 15.578 4.23706Z" fill="#80B500"/>
<path d="M34.9397 56.9901C36.7837 57.4999 38.6867 57.7652 40.5997 57.7791C45.1927 57.7791 47.8247 56.1671 51.0407 53.8891L55.7207 50.5761L55.2118 49.7761C54.6483 48.8667 53.7776 48.1893 52.7576 47.8666C51.7376 47.5439 50.6358 47.5973 49.6517 48.0171C49.1305 46.5305 48.2067 45.2178 46.9833 44.2253C45.7599 43.2329 44.2849 42.5996 42.7227 42.3961C42.894 39.8126 43.8491 37.3427 45.4607 35.3161C46.3457 35.9161 47.4154 36.1815 48.4782 36.0646C49.541 35.9477 50.5274 35.4562 51.2607 34.6781C53.1225 32.7181 54.1494 30.1112 54.1247 27.4081V24.8491H51.6577C50.3547 24.852 49.0659 25.1205 47.8701 25.6382C46.6743 26.1559 45.5966 26.9119 44.7027 27.8601C43.9404 28.6674 43.4702 29.7066 43.3671 30.8121C43.264 31.9176 43.5339 33.0258 44.1337 33.9601C43.1158 35.2008 42.3143 36.6041 41.7627 38.1111C41.2112 36.6041 40.4097 35.2008 39.3918 33.9601C39.9908 33.0255 40.2602 31.9175 40.1571 30.8122C40.054 29.7069 39.5843 28.6678 38.8228 27.8601C37.9291 26.912 36.8515 26.1561 35.6559 25.6384C34.4602 25.1207 33.1716 24.8521 31.8688 24.8491H29.4068V27.4121C29.3821 30.1152 30.409 32.7221 32.2708 34.6821C33.0041 35.4602 33.9905 35.9517 35.0533 36.0686C36.1161 36.1855 37.1858 35.9201 38.0708 35.3201C39.6825 37.347 40.6377 39.8172 40.8087 42.4011C38.6621 42.6671 36.7062 43.767 35.3638 45.4631C34.581 44.9158 33.6752 44.5702 32.7268 44.4571C31.3488 44.3661 30.0927 45.1131 28.5097 46.2021H24.0938V55.8491H25.0207C28.3636 55.7754 31.7009 56.1593 34.9397 56.9901ZM46.0127 29.2251C46.7379 28.4553 47.6124 27.8414 48.5828 27.4208C49.5532 27.0002 50.5991 26.7819 51.6567 26.7791H52.2657V27.4131C52.2879 29.6077 51.4563 31.725 49.9467 33.3181C49.5495 33.7389 49.0276 34.021 48.458 34.1227C47.8883 34.2244 47.3011 34.1404 46.7827 33.8831L49.9467 30.5891L48.6347 29.2251L45.4707 32.5181C45.2232 31.9776 45.1426 31.3755 45.2392 30.7889C45.3357 30.2023 45.6051 29.6578 46.0127 29.2251ZM38.0557 32.5181L34.8927 29.2251L33.5817 30.5891L36.7467 33.8821C36.2284 34.1394 35.6412 34.2234 35.0715 34.1217C34.5019 34.02 33.98 33.7379 33.5828 33.3171C32.0721 31.7245 31.2394 29.6071 31.2608 27.4121V26.7781H31.8698C32.9274 26.7809 33.9733 26.9992 34.9437 27.4198C35.9141 27.8404 36.7886 28.4543 37.5138 29.2241C37.9216 29.6569 38.1911 30.2016 38.2877 30.7884C38.3842 31.3752 38.3035 31.9775 38.0557 32.5181ZM41.7627 44.2721C43.1773 44.2888 44.549 44.7595 45.6758 45.6149C46.8025 46.4703 47.6245 47.6651 48.0208 49.0231C47.3799 49.4222 46.7081 49.7693 46.0117 50.0611C45.6688 49.2128 45.0821 48.485 44.3259 47.9698C43.5697 47.4545 42.6778 47.1749 41.7627 47.1661H38.4978C38.0767 47.1649 37.6664 47.0328 37.3238 46.7881L36.9358 46.5151C37.531 45.8151 38.2708 45.2523 39.1042 44.8653C39.9376 44.4782 40.8449 44.2762 41.7637 44.2731L41.7627 44.2721ZM25.9467 48.1311H29.0697C30.0078 47.5171 31.5108 46.3101 32.6108 46.3821C33.4668 46.4381 34.5697 47.1761 36.2847 48.3821C36.9312 48.8427 37.705 49.0909 38.4987 49.0921H41.7637C42.281 49.0964 42.7867 49.2455 43.2236 49.5225C43.6605 49.7994 44.0111 50.1932 44.2357 50.6591C43.2098 50.9327 42.1503 51.0593 41.0887 51.0351C39.6947 50.9933 38.3151 50.739 36.9978 50.2811L36.4978 50.1071L35.9117 51.9381L36.4117 52.1121C38.0087 52.6677 39.686 52.9572 41.3767 52.9691C44.4319 52.8989 47.3919 51.8926 49.8567 50.0861C50.3202 49.7504 50.8803 49.5745 51.4524 49.585C52.0246 49.5955 52.5779 49.7917 53.0287 50.1441L49.9977 52.2901C46.4567 54.8011 44.3677 55.8491 40.5997 55.8491C38.8271 55.8351 37.0642 55.5866 35.3568 55.1101C32.2833 54.3163 29.121 53.9184 25.9467 53.9261V48.1311Z" fill="white"/>
</svg>
