<svg width="80" height="81" viewBox="0 0 80 81" fill="none" xmlns="http://www.w3.org/2000/svg">
<path d="M15.578 3.66895C23.1404 1.40587 30.9731 0.171824 38.865 0C51.065 0 63.509 3.66895 63.509 3.66895C69.597 6.10495 73.3709 9.14395 75.4919 15.8979C77.7179 23.5373 78.9285 31.4366 79.092 39.392C78.8969 47.9788 77.6885 56.5126 75.4919 64.816C73.3709 71.57 69.332 74.339 63.509 77.046C56.064 79.362 48.3251 80.5975 40.5291 80.715C28.6171 80.715 15.578 77.046 15.578 77.046C9.225 74.611 5.45097 71.841 3.59497 64.816C3.59497 64.816 0 51.516 0 38.787C0.152762 31.0294 1.3622 23.3288 3.59497 15.8979C5.98097 8.87295 9.755 5.56295 15.578 3.66895Z" fill="#80B500"/>
<path d="M47.9163 33.6667V30.5001C47.9163 27.5139 47.9163 26.0224 46.9885 25.0946C46.0607 24.1667 44.5692 24.1667 41.583 24.1667H38.4163C35.4302 24.1667 33.9387 24.1667 33.0108 25.0946C32.083 26.0224 32.083 27.5139 32.083 30.5001V33.6667M38.6475 40.0365C39.2492 38.9567 39.55 38.4167 39.9997 38.4167C40.4493 38.4167 40.7502 38.9551 41.3518 40.0365L41.507 40.3152C41.678 40.6223 41.7635 40.7743 41.8965 40.8757C42.0311 40.977 42.1973 41.015 42.5298 41.0894L42.8307 41.1591C43.9992 41.4235 44.5834 41.5549 44.7228 42.0014C44.8621 42.4479 44.4631 42.915 43.6667 43.846L43.4608 44.0867C43.2344 44.3511 43.1204 44.4825 43.0698 44.6472C43.0191 44.8118 43.0365 44.9876 43.0698 45.3407L43.1014 45.6621C43.2218 46.905 43.2819 47.5272 42.9193 47.8027C42.5552 48.0782 42.0073 47.8265 40.9133 47.323L40.6314 47.1932C40.3195 47.0507 40.1643 46.9778 39.9997 46.9778C39.835 46.9778 39.6798 47.0507 39.3679 47.1932L39.0861 47.323C37.992 47.8281 37.4442 48.0782 37.08 47.8027C36.7158 47.5272 36.7776 46.905 36.8979 45.6621L36.9296 45.3407C36.9628 44.9876 36.9803 44.8118 36.9296 44.6472C36.8789 44.4825 36.7649 44.3511 36.5385 44.0867L36.3327 43.846C35.5363 42.915 35.1373 42.4495 35.2766 42.0014C35.4159 41.5549 36.0002 41.4235 37.1687 41.1591L37.4695 41.0894C37.802 41.015 37.9683 40.9786 38.1028 40.8757C38.2358 40.7743 38.3213 40.6223 38.4923 40.3152L38.6475 40.0365Z" stroke="white" stroke-width="2"/>
<path d="M51.7621 47.8772C52.8464 45.1686 52.9623 42.1688 52.0905 39.3846C51.2186 36.6004 49.4123 34.2025 46.9769 32.5961C44.5414 30.9897 41.6261 30.2733 38.7235 30.5679C35.8209 30.8626 33.1089 32.1502 31.0459 34.2132C28.9829 36.2762 27.6953 38.9881 27.4007 41.8907C27.1061 44.7933 27.8225 47.7087 29.4289 50.1441C31.0353 52.5796 33.4331 54.3858 36.2173 55.2577C39.0015 56.1296 42.0014 56.0136 44.7099 54.9293" stroke="white" stroke-width="2" stroke-linecap="round"/>
</svg>
