<svg width="80" height="81" viewBox="0 0 80 81" fill="none" xmlns="http://www.w3.org/2000/svg">
<path d="M15.578 3.66895C23.1404 1.40587 30.9731 0.171824 38.865 0C51.065 0 63.509 3.66895 63.509 3.66895C69.597 6.10495 73.3709 9.14395 75.4919 15.8979C77.7179 23.5373 78.9285 31.4366 79.092 39.392C78.8969 47.9788 77.6885 56.5126 75.4919 64.816C73.3709 71.57 69.332 74.339 63.509 77.046C56.064 79.362 48.3251 80.5975 40.5291 80.715C28.6171 80.715 15.578 77.046 15.578 77.046C9.225 74.611 5.45097 71.841 3.59497 64.816C3.59497 64.816 0 51.516 0 38.787C0.152762 31.0294 1.3622 23.3288 3.59497 15.8979C5.98097 8.87295 9.755 5.56295 15.578 3.66895Z" fill="#80B500"/>
<path d="M37.7603 23.5507C38.2925 23.2552 38.8912 23.1001 39.5 23.1001C40.1088 23.1001 40.7075 23.2552 41.2397 23.5507L54.7041 31.0292C54.9832 31.1844 55.2158 31.4114 55.3777 31.6868C55.5396 31.9621 55.625 32.2757 55.625 32.5951V47.3495C55.6252 47.9888 55.4543 48.6165 55.1301 49.1675C54.806 49.7185 54.3403 50.1727 53.7814 50.4831L41.2397 57.4491C40.7075 57.7446 40.1088 57.8997 39.5 57.8997C38.8912 57.8997 38.2925 57.7446 37.7603 57.4491L25.2186 50.4813C24.6603 50.1712 24.1949 49.7175 23.8708 49.1672C23.5466 48.6169 23.3755 47.9899 23.375 47.3513V32.5951C23.375 32.2757 23.4604 31.9621 23.6223 31.6868C23.7842 31.4114 24.0168 31.1844 24.2959 31.0292L37.7603 23.5507Z" stroke="white" stroke-width="2" stroke-linecap="round" stroke-linejoin="round"/>
<path d="M31.4375 27.0625L47.5625 36.0208V42.2917M28.75 41.0877L34.125 44.0833" stroke="white" stroke-width="2" stroke-linecap="round" stroke-linejoin="round"/>
<path d="M23.375 31.5415L39.5 40.4998M39.5 40.4998L55.625 31.5415M39.5 40.4998V58.4165" stroke="white" stroke-width="2" stroke-linejoin="round"/>
</svg>
