<svg width="24" height="24" viewBox="0 0 24 24" fill="none" xmlns="http://www.w3.org/2000/svg">
<path d="M15.4787 17.4631C15.3593 18.5164 14.7365 19.3693 13.772 19.7909C13.2315 20.0245 12.5098 20.1525 11.9308 20.1145C11.0401 20.0764 10.2052 19.8502 9.42587 19.4484C9.15628 19.2963 8.74084 19.011 8.42391 18.7446C8.34575 18.6685 8.33266 18.6304 8.38934 18.5517C8.41425 18.5055 8.46989 18.421 8.58397 18.25C8.75792 17.9978 8.77652 17.9645 8.79504 17.9321C8.85069 17.8503 8.93547 17.8428 9.02408 17.9075C9.03622 17.9202 9.03622 17.9202 9.04292 17.9263C9.05474 17.9396 9.05474 17.9396 9.08651 17.9644C9.11932 17.9902 9.14311 18.0024 9.14894 18.017C9.98406 18.6873 10.9562 19.0679 11.9375 19.1059C13.2997 19.0871 14.2786 18.4591 14.4589 17.4886C14.6446 16.4324 13.8328 15.5104 12.2453 14.9963C11.7451 14.8441 10.4865 14.3286 10.2541 14.1852C9.1661 13.5318 8.65542 12.6741 8.72966 11.6104C8.84103 10.1405 10.1729 9.04638 11.8561 9.0368C12.6032 9.0368 13.3564 9.19651 14.0709 9.5047C14.3286 9.61708 14.7885 9.87256 14.9414 9.99469C15.0332 10.0644 15.0528 10.1405 14.9962 10.2257C14.9774 10.2777 14.922 10.3551 14.8263 10.5211C14.6868 10.7392 14.6817 10.7483 14.6564 10.7962C14.6067 10.8763 14.5357 10.8827 14.4412 10.8254C13.6775 10.2928 12.8162 10.0263 11.875 10.0073C10.706 10.0263 9.82711 10.7407 9.77051 11.7196C9.75885 12.599 10.3993 13.2396 11.7864 13.722C14.6076 14.6539 15.6837 15.7427 15.4787 17.4631ZM12 2.28817C13.8329 2.28817 15.3303 4.07141 15.4045 6.3069H8.59986C8.66532 4.07141 10.1671 2.28817 12 2.28817ZM21.5 6.73042C21.5 6.49713 21.3239 6.3069 21.0992 6.3069H21.0845H16.6857C16.5744 3.35746 14.5168 1 12 1C9.4816 1 7.42936 3.35746 7.3196 6.3069H2.90235C2.68082 6.31206 2.50503 6.49812 2.50503 6.73042C2.50503 6.74385 2.50503 6.74974 2.50503 6.76317H2.5L3.1274 20.9896C3.1274 21.0281 3.13474 21.0669 3.13474 21.1131C3.13474 21.1221 3.13594 21.1249 3.13594 21.1419V21.1636L3.14057 21.1712C3.23501 22.163 3.93385 22.9537 4.88896 22.9925V23H18.9001C18.9075 23 18.9118 23 18.919 23C18.9299 23 18.9299 23 18.9379 23H18.9669V22.9925C19.9356 22.9683 20.7287 22.163 20.8043 21.1603L20.8086 21.1419C20.8086 21.1324 20.8086 21.1222 20.8086 21.1131C20.8086 21.0842 20.8159 21.0657 20.8159 21.0356L21.5 6.74974C21.5 6.7445 21.5 6.7364 21.5 6.73042Z" fill="#EE4D2D"/>
</svg>
